<?xml version="1.0" standalone="no"?>
<!DOCTYPE svg PUBLIC "-//W3C//DTD SVG 20010904//EN"
 "http://www.w3.org/TR/2001/REC-SVG-20010904/DTD/svg10.dtd">
<svg version="1.0" xmlns="http://www.w3.org/2000/svg"
 width="1280.000000pt" height="1280.000000pt" viewBox="0 0 1280.000000 1280.000000"
 preserveAspectRatio="xMidYMid meet">
<metadata>
Created by potrace 1.16, written by Peter Selinger 2001-2019
</metadata>
<g transform="translate(0.000000,1280.000000) scale(0.100000,-0.100000)"
fill="#000000" stroke="none">
<path d="M3332 9467 c-1684 -1684 -3062 -3067 -3062 -3072 0 -16 6114 -6125
6130 -6125 20 0 6130 6110 6130 6130 0 16 -6109 6130 -6125 6130 -6 0 -1388
-1378 -3073 -3063z m3308 -1965 c19 -9 43 -33 55 -52 20 -34 20 -53 26 -1000
4 -753 3 -972 -7 -997 -16 -42 -60 -63 -129 -63 -69 0 -130 29 -153 72 -27 50
-294 405 -592 788 -358 460 -490 635 -526 696 l-29 49 -3 -385 c-1 -212 2
-541 7 -732 5 -192 5 -364 1 -385 -5 -20 -22 -50 -39 -66 -25 -26 -40 -31 -89
-35 -75 -5 -124 10 -158 51 -27 32 -27 32 -18 132 15 165 11 1490 -5 1623 -7
63 -10 129 -6 148 6 35 58 104 79 104 6 0 34 12 61 25 72 36 125 33 170 -7 20
-17 49 -56 65 -87 36 -73 235 -339 549 -736 140 -176 317 -404 394 -507 78
-103 141 -186 142 -185 1 1 -3 283 -9 627 -14 911 -15 849 12 887 37 52 135
69 202 35z m3069 0 c21 -10 43 -33 55 -57 21 -39 21 -54 26 -990 3 -522 2
-964 -2 -981 -5 -17 -20 -41 -34 -55 -23 -21 -35 -24 -103 -24 -70 0 -81 3
-114 28 -20 15 -44 42 -53 59 -23 44 -265 366 -594 788 -305 392 -435 563
-499 658 -24 35 -45 61 -47 59 -3 -3 -1 -339 5 -748 9 -690 9 -747 -7 -779
-47 -96 -240 -93 -286 5 -17 35 -17 46 -5 129 18 129 18 1275 -1 1557 -16 252
-15 254 95 308 149 72 207 50 289 -111 26 -52 287 -396 581 -768 137 -173 303
-387 368 -475 l120 -160 -9 580 c-13 892 -13 919 11 945 44 50 140 65 204 32z
m-6603 -12 c265 -33 431 -171 479 -395 18 -87 19 -234 1 -300 -19 -72 -67
-163 -116 -218 -23 -26 -41 -49 -39 -51 2 -2 20 -11 39 -21 73 -36 134 -91
181 -164 66 -100 89 -177 89 -302 0 -294 -114 -484 -343 -571 -149 -57 -495
-84 -732 -57 -66 7 -169 13 -230 14 -129 0 -167 15 -192 73 -13 31 -13 49 -3
127 9 67 10 287 6 865 -4 426 -7 807 -8 847 -1 78 14 115 55 134 45 20 684 35
813 19z m1284 -1646 c25 -10 48 -29 62 -53 21 -32 23 -49 23 -156 0 -134 -14
-180 -68 -219 -39 -29 -146 -28 -184 0 -57 43 -68 69 -67 157 1 135 37 225
108 268 38 23 73 24 126 3z m3089 -11 c50 -37 66 -87 66 -203 0 -90 -4 -112
-24 -154 -30 -62 -89 -92 -159 -82 -98 13 -142 67 -142 176 0 129 45 240 111
274 42 21 111 16 148 -11z m3067 2 c14 -9 35 -37 46 -62 17 -39 20 -62 16
-157 -3 -122 -17 -160 -71 -200 -38 -28 -128 -29 -177 0 -55 32 -75 76 -74
164 1 127 49 235 118 266 38 18 107 12 142 -11z"/>
<path d="M2550 6916 l0 -305 56 -7 c95 -11 421 2 489 20 95 26 145 62 180 130
26 52 29 68 29 150 0 123 -15 170 -73 227 -74 75 -108 82 -418 87 l-263 3 0
-305z"/>
<path d="M2683 6343 l-143 -4 0 -307 c0 -169 4 -312 8 -319 22 -34 449 -48
594 -19 147 29 229 81 275 174 24 50 28 69 28 147 0 73 -5 100 -23 140 -31 68
-93 128 -166 162 -60 27 -65 28 -246 29 -102 0 -249 -1 -327 -3z"/>
</g>
</svg>
